HIERARCHY
ROOT locator2
{
  OFFSET 53.6172 30.1899 0.816905
  CHANNELS 6 Xposition Yposition Zposition Zrotation Xrotation Yrotation
  JOINT koshi
  {
    OFFSET 0 0 0
    CHANNELS 6 Xposition Yposition Zposition Zrotation Xrotation Yrotation
    JOINT sippo01
    {
      OFFSET 0 42.8363 -0.548134
      CHANNELS 6 Xposition Yposition Zposition Zrotation Xrotation Yrotation
      JOINT sippo02
      {
        OFFSET 0 44.0461 -3.28882
        CHANNELS 6 Xposition Yposition Zposition Zrotation Xrotation Yrotation
        JOINT sippo03
        {
          OFFSET 0 34.1929 -2.46662
          CHANNELS 6 Xposition Yposition Zposition Zrotation Xrotation Yrotation
          JOINT sippo04
          {
            OFFSET 0 30.0959 -1.75404
            CHANNELS 6 Xposition Yposition Zposition Zrotation Xrotation Yrotation
            JOINT sippo05
            {
              OFFSET 0 28.3637 -1.75404
              CHANNELS 6 Xposition Yposition Zposition Zrotation Xrotation Yrotation
              JOINT sippo06
              {
                OFFSET 0 31.6071 -3.2043
                CHANNELS 6 Xposition Yposition Zposition Zrotation Xrotation Yrotation
                End Site
                {
                  OFFSET 0 0 0
                }
              }
            }
          }
        }
      }
    }
    JOINT R_momo
    {
      OFFSET -27.891 13.5892 3.92723
      CHANNELS 6 Xposition Yposition Zposition Zrotation Xrotation Yrotation
      JOINT R_hiza
      {
        OFFSET 0 28.01 1.8232
        CHANNELS 6 Xposition Yposition Zposition Zrotation Xrotation Yrotation
        JOINT R_ashi
        {
          OFFSET 0 24.3992 -2.49174
          CHANNELS 6 Xposition Yposition Zposition Zrotation Xrotation Yrotation
          End Site
          {
            OFFSET 0 0 0
          }
        }
      }
    }
    JOINT L_momo
    {
      OFFSET 27.891 13.5892 3.92714
      CHANNELS 6 Xposition Yposition Zposition Zrotation Xrotation Yrotation
      JOINT L_hiza
      {
        OFFSET 0 28.0098 1.82319
        CHANNELS 6 Xposition Yposition Zposition Zrotation Xrotation Yrotation
        JOINT L_ashi
        {
          OFFSET 0 24.3992 -2.49171
          CHANNELS 6 Xposition Yposition Zposition Zrotation Xrotation Yrotation
          End Site
          {
            OFFSET 0 0 0
          }
        }
      }
    }
  }
  JOINT hara
  {
    OFFSET 0 2.15392 0
    CHANNELS 6 Xposition Yposition Zposition Zrotation Xrotation Yrotation
    JOINT mune
    {
      OFFSET 0 62.0609 0.472494
      CHANNELS 6 Xposition Yposition Zposition Zrotation Xrotation Yrotation
      JOINT R_kata
      {
        OFFSET 22.6695 9.65301 -5.3622
        CHANNELS 6 Xposition Yposition Zposition Zrotation Xrotation Yrotation
        JOINT R_hiji
        {
          OFFSET 0 25.813 1.69098
          CHANNELS 6 Xposition Yposition Zposition Zrotation Xrotation Yrotation
          JOINT R_te
          {
            OFFSET 0 28.5636 -0.966307
            CHANNELS 6 Xposition Yposition Zposition Zrotation Xrotation Yrotation
            End Site
            {
              OFFSET 0 0 0
            }
          }
        }
      }
      JOINT L_kata
      {
        OFFSET -22.6695 9.65298 -5.3622
        CHANNELS 6 Xposition Yposition Zposition Zrotation Xrotation Yrotation
        JOINT L_hiji
        {
          OFFSET 0 25.813 1.69102
          CHANNELS 6 Xposition Yposition Zposition Zrotation Xrotation Yrotation
          JOINT L_te
          {
            OFFSET 0 28.5636 -0.966295
            CHANNELS 6 Xposition Yposition Zposition Zrotation Xrotation Yrotation
            End Site
            {
              OFFSET 0 0 0
            }
          }
        }
      }
      JOINT kubi
      {
        OFFSET 0 23.1438 -0.944988
        CHANNELS 6 Xposition Yposition Zposition Zrotation Xrotation Yrotation
        JOINT atama
        {
          OFFSET 0 20.8625 4.12737
          CHANNELS 6 Xposition Yposition Zposition Zrotation Xrotation Yrotation
          JOINT ago
          {
            OFFSET 0 7.552 -7.58201
            CHANNELS 6 Xposition Yposition Zposition Zrotation Xrotation Yrotation
            End Site
            {
              OFFSET 0 0 0
            }
          }
        }
      }
    }
  }
}
MOTION
Frames:	6
Frame Time:	0.0333333
75.5969 29.9399 0.282727 -90 -3.50835e-015 -90 0 0 0 -172.565 1.71564 0.404176 -2.38419e-007 42.8363 -0.548132 1.78727 -13.2772 3.98887 -6.28331e-007 44.0461 -3.28882 4.53723 9.94126 -3.88463 -2.04782e-006 34.1929 -2.46661 5.28477 4.2138 0.579974 -2.26665e-006 30.0959 -1.75404 7.21828 11.2616 -1.27209 -3.97109e-006 28.3637 -1.75403 9.85265 -4.37233 5.39068 -7.61599e-006 31.6072 -3.2043 5.66757 -3.3393 -6.93011 -27.891 13.5892 3.92724 75.4808 -39.5729 -64.05 -1.72544e-006 28.01 1.82319 16.2089 -79.5202 -13.898 1.18114e-006 24.3992 -2.49174 -163.781 31.9301 -168.778 27.891 13.5892 3.92714 -73.9857 -24.5738 83.3434 2.80016e-006 28.0098 1.82319 -3.01485 -49.3445 16.8303 -2.31601e-006 24.3992 -2.49172 121.176 75.9548 174.202 6.07685e-007 2.15392 -7.10543e-015 -3.40603 -2.13998 -3.32697 3.72529e-009 62.0609 0.472494 -3.45448e-012 -3.45388e-015 1.82882e-013 22.6695 9.65299 -5.36221 -138.945 31.9873 32.0058 3.8147e-006 25.813 1.69097 179.829 -67.1633 -177.033 -3.94506e-006 28.5636 -0.966309 22.1903 -4.97688 -75.343 -22.6695 9.65297 -5.3622 139.361 -10.234 -53.6959 -4.26326e-014 25.813 1.69103 -179.516 -61.0736 -175.619 -1.13704e-005 28.5636 -0.966298 -56.2028 37.0972 124.521 2.60516e-009 23.1438 -0.944994 -10.1333 7.87548 -3.6306 -3.72576e-009 20.8625 4.12738 14.0231 8.05432 13.8565 5.01335e-007 7.55201 -7.58201 -1.04065e-005 -15.684 -2.79094e-006 
86.5633 29.7608 0.540871 -90 -3.50835e-015 -90 0 0 0 -173.487 0.42696 0.452073 -2.38419e-007 42.8363 -0.548132 0.697425 -8.58385 4.29155 -7.70348e-007 44.0461 -3.28882 2.22635 11.482 -1.29219 -2.06075e-006 34.1929 -2.46662 2.48195 9.23713 4.54778 -2.54646e-006 30.0959 -1.75404 6.88807 13.6918 -2.64326 -4.44768e-006 28.3637 -1.75404 9.50338 3.98847 3.88647 -8.64399e-006 31.6072 -3.2043 5.7557 2.59676 -10.0943 -27.891 13.5892 3.92724 66.9287 -39.4295 -74.2647 -1.44537e-006 28.01 1.82319 10.3407 -73.3798 -20.6283 1.01085e-006 24.3992 -2.49174 -162.538 30.9319 -167.152 27.891 13.5892 3.92714 -71.1263 -19.6826 78.1591 2.59188e-006 28.0098 1.82319 -4.82671 -56.6573 22.889 -2.64408e-006 24.3992 -2.49172 123.855 76.5921 175.651 6.07685e-007 2.15392 -7.10543e-015 2.14415 1.34283 -3.41025 3.72529e-009 62.0609 0.472494 -1.20741e-006 1.59177e-013 6.3599e-008 22.6695 9.65299 -5.36221 -140.969 18.4786 37.3543 3.8147e-006 25.813 1.69097 179.472 -83.7309 -179.339 -3.82929e-006 28.5636 -0.966309 8.58473 -6.00431 -79.5184 -22.6695 9.65297 -5.3622 158.474 -3.0062 -27.1092 -1.42109e-014 25.813 1.69103 -179.478 -60.1826 -172.283 -1.12798e-005 28.5636 -0.966299 -62.9752 11.4064 124.69 2.60516e-009 23.1438 -0.944994 -12.3375 10.3272 -3.46901 -3.72574e-009 20.8625 4.12738 17.4724 10.9145 9.93849 6.28117e-007 7.55202 -7.58201 -1.16013e-005 -30.3151 -5.83683e-006 
97.4187 29.8743 0.794004 -90 -3.50835e-015 -90 0 0 0 -174.82 -0.672927 0.437464 -2.38419e-007 42.8363 -0.548132 0.0832575 -5.15117 4.9792 -8.4622e-007 44.0461 -3.28882 -0.170079 12.4468 0.829365 -1.95856e-006 34.1929 -2.46662 -0.49624 12.2063 7.44993 -2.58414e-006 30.0959 -1.75404 5.03929 15.0209 -3.61519 -4.84455e-006 28.3637 -1.75403 8.19367 12.8895 2.73192 -9.8367e-006 31.6072 -3.2043 5.20408 7.44848 -12.6399 -27.891 13.5892 3.92724 63.0122 -38.4598 -79.7256 -1.38072e-006 28.01 1.82319 8.69399 -69.9171 -22.6024 8.4661e-007 24.3992 -2.49174 -161.181 30.7363 -166.881 27.891 13.5892 3.92714 -63.8912 -15.9274 69.9004 2.04003e-006 28.0098 1.82319 -6.20784 -62.2316 25.6437 -3.68544e-006 24.3992 -2.49173 132.461 77.8652 178.41 6.07685e-007 2.15392 0 7.19082 4.87931 -4.64309 3.72529e-009 62.0609 0.472494 -5.46976e-012 -3.97569e-015 2.85455e-013 22.6695 9.65299 -5.36221 -145.306 -1.71023 33.6042 3.8147e-006 25.813 1.69097 0.382062 -81.12 -0.337451 -3.82694e-006 28.5636 -0.96631 27.3717 -9.78869 -89.537 -22.6695 9.65297 -5.3622 167.756 0.524642 -14.3519 -2.13163e-014 25.813 1.69103 -179.12 -70.836 -170.606 -1.13021e-005 28.5636 -0.966299 -71.8693 -8.03868 115.551 2.60516e-009 23.1438 -0.944994 -12.5219 6.90308 -1.81433 -3.72575e-009 20.8625 4.12738 10.9265 9.41085 5.54228 4.10618e-007 7.55202 -7.58201 -1.32571e-005 -40.8875 -8.672e-006 
108.738 30.4037 1.00378 -90 -3.50835e-015 -90 0 0 0 -176.166 -1.7887 0.370671 -2.38419e-007 42.8363 -0.548132 -0.531527 -4.77303 5.7193 -9.62541e-007 44.0461 -3.28882 -2.60192 12.6756 2.03161 -1.87294e-006 34.1929 -2.46662 -3.63517 13.7308 7.84028 -2.91329e-006 30.0959 -1.75403 2.06735 15.6587 -4.44012 -5.62251e-006 28.3637 -1.75403 5.24481 10.1233 3.80129 -1.05129e-005 31.6072 -3.20431 3.82339 6.46603 -14.1953 -27.891 13.5892 3.92724 57.7573 -36.6526 -84.2787 -1.25449e-006 28.01 1.82319 6.89702 -64.0906 -25.5307 6.58924e-007 24.3992 -2.49174 -160.505 32.1397 -166.56 27.891 13.5892 3.92714 -58.0395 -10.9748 59.9366 1.46019e-006 28.0098 1.82319 -7.05567 -63.5986 26.056 -4.29743e-006 24.3992 -2.49173 140.541 79.392 -178.123 6.07685e-007 2.15392 -3.55271e-015 9.06132 6.7941 -5.53593 3.72529e-009 62.0609 0.472494 4.77083e-015 9.93923e-016 -1.59028e-015 22.6695 9.65299 -5.36221 -151.572 -15.1117 26.0864 3.8147e-006 25.813 1.69097 0.116518 -61.6639 -2.29604 -3.93684e-006 28.5636 -0.966311 53.1696 -24.7921 -85.6856 -22.6695 9.65297 -5.3622 167.545 4.23877 -10.5316 -2.13163e-014 25.813 1.69103 -7.27798 -88.4016 -0.872818 -1.14702e-005 28.5636 -0.966299 -82.6537 -18.3539 95.9724 2.60517e-009 23.1438 -0.944994 -10.2221 4.76295 -0.231831 -3.72574e-009 20.8625 4.12738 0.916611 6.78091 2.08418 4.28646e-008 7.55202 -7.58201 -1.36062e-005 -43.4986 -9.19929e-006 
121.923 30.9383 1.2156 -90 -3.50835e-015 -90 0 0 0 -177.525 -2.91808 0.249756 -2.38419e-007 42.8363 -0.548132 -1.15115 -4.39048 6.47521 -1.07798e-006 44.0461 -3.28882 -4.81558 11.914 2.43035 -1.80544e-006 34.1929 -2.46662 -6.47169 14.6132 6.26683 -3.45799e-006 30.0959 -1.75403 -1.41346 16.0197 -5.30506 -6.71233e-006 28.3637 -1.75404 1.85082 -0.20497 5.02107 -1.16981e-005 31.6072 -3.20431 2.09139 0.269152 -15.3892 -27.891 13.5892 3.92724 45.974 -33.3533 -90.6457 -9.27824e-007 28.01 1.82319 4.60727 -48.6913 -28.6633 3.59736e-007 24.3992 -2.49174 -158.403 37.3908 -165.297 27.891 13.5892 3.92714 -43.0715 -9.81453 48.4491 5.61943e-007 28.0098 1.82319 -5.97497 -52.0448 32.5336 -3.94944e-006 24.3992 -2.49173 138.397 83.5843 -167.006 6.07685e-007 2.15392 -7.10543e-015 8.05038 6.54421 -4.76795 3.72529e-009 62.0609 0.472494 -4.77083e-014 -5.01931e-014 2.14687e-014 22.6695 9.65299 -5.36221 -157.335 -21.1674 23.195 3.8147e-006 25.813 1.69097 0.071371 -34.6505 -1.4686 -3.90642e-006 28.5636 -0.966312 77.4866 -39.7639 -60.6349 -22.6695 9.65297 -5.3622 167.388 -1.83934 -9.38518 -4.9738e-014 25.813 1.69103 -0.242525 -57.1001 1.44203 -1.15169e-005 28.5636 -0.966297 -93.6872 -21.8965 69.3725 2.60516e-009 23.1438 -0.944994 -8.55901 5.7235 -0.668171 -3.72575e-009 20.8625 4.12738 -6.67038 5.13103 -0.710965 -2.2506e-007 7.55202 -7.58201 7.31514e-006 -36.1716 1.24064e-005 
133.45 31.4625 1.42332 -90 -3.50835e-015 -90 0 0 0 -178.859 -4.02599 0.0796554 -2.38419e-007 42.8363 -0.548132 -1.75917 -4.01466 7.2253 -1.18932e-006 44.0461 -3.28882 -6.54013 10.9883 2.3668 -1.76839e-006 34.1929 -2.46662 -8.73689 14.9195 3.81511 -4.05798e-006 30.0959 -1.75404 -4.68168 16.0907 -6.30182 -7.83471e-006 28.3637 -1.75404 -1.0786 -5.02364 5.27404 -1.32685e-005 31.6072 -3.20431 0.481775 -6.12115 -16.7141 -27.891 13.5892 3.92724 33.2452 -29.0621 -93.5107 -5.36854e-007 28.01 1.8232 3.68903 -29.3145 -31.7415 3.60126e-008 24.3992 -2.49173 -154.669 45.1256 -164.471 27.891 13.5892 3.92714 -30.6405 -19.6486 73.5898 8.79347e-007 28.0098 1.82319 -0.999976 -28.3353 9.05952 -4.4828e-006 24.3992 -2.49172 61.9889 86.2657 -99.868 6.07685e-007 2.15392 0 5.70659 3.01981 -3.12459 3.72529e-009 62.0609 0.472494 3.18055e-015 1.07841e-014 2.68757e-013 22.6695 9.65299 -5.36221 -159.363 -23.5217 25.9688 3.8147e-006 25.813 1.69097 0.064201 -14.3028 0.511635 -3.8043e-006 28.5636 -0.966311 102.012 -45.9629 -29.7275 -22.6695 9.65297 -5.3622 166.242 -9.1518 -11.7691 0 25.813 1.69103 -0.0359172 -33.7684 -2.54096 -1.1406e-005 28.5636 -0.966296 -99.0861 -24.0206 47.9118 2.60516e-009 23.1438 -0.944994 -5.90233 7.6796 -2.27012 -3.72575e-009 20.8625 4.12738 -8.12793 6.82953 -2.50786 -2.8628e-007 7.55202 -7.58201 -8.76503e-006 -28.9863 -2.97276e-006 
